<svg width="66" height="45" viewBox="0 0 66 45" fill="none" xmlns="http://www.w3.org/2000/svg">
<path d="M26.9492 27.9453H31.7832V34.7715H26.9492V44H18.4824V34.7715H0.992188L0.611328 29.4395L18.3945 1.34375H26.9492V27.9453ZM9.04883 27.9453H18.4824V12.8867L17.9258 13.8535L9.04883 27.9453ZM65.0645 26.3633C65.0645 32.2617 63.8438 36.7734 61.4023 39.8984C58.9609 43.0234 55.3867 44.5859 50.6797 44.5859C46.0312 44.5859 42.4766 43.0527 40.0156 39.9863C37.5547 36.9199 36.2949 32.5254 36.2363 26.8027V18.9512C36.2363 12.9941 37.4668 8.47266 39.9277 5.38672C42.4082 2.30078 45.9727 0.757812 50.6211 0.757812C55.2695 0.757812 58.8242 2.29102 61.2852 5.35742C63.7461 8.4043 65.0059 12.7891 65.0645 18.5117V26.3633ZM56.5977 17.75C56.5977 14.2148 56.1094 11.6465 55.1328 10.0449C54.1758 8.42383 52.6719 7.61328 50.6211 7.61328C48.6289 7.61328 47.1543 8.38477 46.1973 9.92773C45.2598 11.4512 44.7617 13.8438 44.7031 17.1055V27.4766C44.7031 30.9531 45.1719 33.541 46.1094 35.2402C47.0664 36.9199 48.5898 37.7598 50.6797 37.7598C52.75 37.7598 54.2441 36.9492 55.1621 35.3281C56.0801 33.707 56.5586 31.2266 56.5977 27.8867V17.75Z" fill="#F0A446"/>
</svg>
