<svg width="29" height="44" viewBox="0 0 29 44" fill="none" xmlns="http://www.w3.org/2000/svg">
<path d="M1.16016 22.0234L3.62109 0.34375H27.5273V7.4043H10.5645L9.50977 16.5742C11.5215 15.5 13.6602 14.9629 15.9258 14.9629C19.9883 14.9629 23.1719 16.2227 25.4766 18.7422C27.7813 21.2617 28.9336 24.7871 28.9336 29.3184C28.9336 32.0723 28.3477 34.543 27.1758 36.7305C26.0234 38.8984 24.3633 40.5879 22.1953 41.7988C20.0273 42.9902 17.4688 43.5859 14.5195 43.5859C11.9414 43.5859 9.54883 43.0684 7.3418 42.0332C5.13477 40.9785 3.38672 39.5039 2.09766 37.6094C0.828125 35.7148 0.154297 33.5566 0.0761719 31.1348H8.45508C8.63086 32.9121 9.24609 34.2988 10.3008 35.2949C11.375 36.2715 12.7715 36.7598 14.4902 36.7598C16.4043 36.7598 17.8789 36.0762 18.9141 34.709C19.9492 33.3223 20.4668 31.3691 20.4668 28.8496C20.4668 26.4277 19.8711 24.5723 18.6797 23.2832C17.4883 21.9941 15.7988 21.3496 13.6113 21.3496C11.5996 21.3496 9.96875 21.877 8.71875 22.9316L7.89844 23.6934L1.16016 22.0234Z" fill="#F0A446"/>
</svg>
