<svg width="40" height="45" viewBox="0 0 40 45" fill="none" xmlns="http://www.w3.org/2000/svg">
<path d="M0.783203 9.54688C0.783203 6.92969 1.63281 4.81055 3.33203 3.18945C5.03125 1.54883 7.25781 0.728516 10.0117 0.728516C12.8047 0.728516 15.0508 1.53906 16.75 3.16016C18.4492 4.76172 19.2988 6.93945 19.2988 9.69336V11.8027C19.2988 14.4395 18.4492 16.5586 16.75 18.1602C15.0508 19.7617 12.8242 20.5625 10.0703 20.5625C7.29688 20.5625 5.05078 19.7617 3.33203 18.1602C1.63281 16.5391 0.783203 14.3613 0.783203 11.627V9.54688ZM6.4082 11.8027C6.4082 12.9746 6.74023 13.9219 7.4043 14.6445C8.08789 15.3477 8.97656 15.6992 10.0703 15.6992C11.1641 15.6992 12.0332 15.3379 12.6777 14.6152C13.3223 13.8926 13.6445 12.9258 13.6445 11.7148V9.54688C13.6445 8.375 13.3223 7.42773 12.6777 6.70508C12.0332 5.98242 11.1445 5.62109 10.0117 5.62109C8.9375 5.62109 8.06836 5.98242 7.4043 6.70508C6.74023 7.4082 6.4082 8.39453 6.4082 9.66406V11.8027ZM21.1738 33.541C21.1738 30.9043 22.0332 28.7852 23.752 27.1836C25.4707 25.5625 27.6973 24.752 30.4316 24.752C33.2051 24.752 35.4414 25.5527 37.1406 27.1543C38.8594 28.7363 39.7188 30.9238 39.7188 33.7168V35.8262C39.7188 38.4434 38.8789 40.5625 37.1992 42.1836C35.5195 43.7852 33.2832 44.5859 30.4902 44.5859C27.6777 44.5859 25.4219 43.7754 23.7227 42.1543C22.0234 40.5332 21.1738 38.3848 21.1738 35.709V33.541ZM26.7988 35.8262C26.7988 36.9004 27.1504 37.8184 27.8535 38.5801C28.5566 39.3418 29.4355 39.7227 30.4902 39.7227C32.873 39.7227 34.0645 38.4043 34.0645 35.7676V33.541C34.0645 32.3691 33.7324 31.4316 33.0684 30.7285C32.4043 30.0059 31.5254 29.6445 30.4316 29.6445C29.3379 29.6445 28.459 30.0059 27.7949 30.7285C27.1309 31.4316 26.7988 32.3984 26.7988 33.6289V35.8262ZM11.7402 40.8066L7.60938 38.5801L28.4395 5.24023L32.5703 7.4668L11.7402 40.8066Z" fill="#F0A446"/>
</svg>
